# xmcd CD database file
#
# Track frame offsets:
#	185
#	21687
#	44968
#	70525
#	85257
#	117920
#	150267
#	171322
#	196243
#	215709
#	246204
#	264597
#	289609
#	311313
#
# Disc length: 4376 seconds
#
# Revision: 0
# Processed by: cddbd v1.5.2PL0 Copyright (c) Steve Scherf et al.
# Submitted via: CDex 2.02
#
DISCID=ca11160e
DTITLE=Cooke and Green - House Party
DYEAR=1900
DGENRE=Blues
TTITLE0=You Got Me Dizzy
TTITLE1=Trouble in Mind
TTITLE2=She Caught the Katy
TTITLE3=Sliding Delta
TTITLE4=Rock Me
TTITLE5=Rather Be Blind
TTITLE6=Goin' Fishin' Blues
TTITLE7=Leavin' Trunk
TTITLE8=Corrina
TTITLE9=Ooh Baby
TTITLE10=How Long Blues
TTITLE11=Shake That Thing
TTITLE12=You Don't Have to Go
TTITLE13=Cooldriver
EXTD=
EXTT0=
EXTT1=
EXTT2=
EXTT3=
EXTT4=
EXTT5=
EXTT6=
EXTT7=
EXTT8=
EXTT9=
EXTT10=
EXTT11=
EXTT12=
EXTT13=
PLAYORDER=
